HIERARCHY
ROOT Hip
{
  OFFSET 0.000000 0.000000 0.000000
  CHANNELS 6 Xposition Yposition Zposition Zrotation Xrotation Yrotation
  JOINT RHip
  {
    OFFSET -0.079126 -0.063195 0.075417
    CHANNELS 3 Zrotation Xrotation Yrotation
    JOINT RKnee
    {
      OFFSET -0.140743 0.329166 -0.116547
      CHANNELS 3 Zrotation Xrotation Yrotation
      JOINT RFoot
      {
        OFFSET -0.147212 -0.130874 0.034653
        CHANNELS 3 Zrotation Xrotation Yrotation
        End Site
        {
          OFFSET 0.000000 0.050000 0.000000
        }
      }
    }
  }
  JOINT LHip
  {
    OFFSET 0.079093 0.063085 -0.075443
    CHANNELS 3 Zrotation Xrotation Yrotation
    JOINT LKnee
    {
      OFFSET -0.280739 -0.246703 0.150240
      CHANNELS 3 Zrotation Xrotation Yrotation
      JOINT LFoot
      {
        OFFSET 0.063967 0.000004 0.313053
        CHANNELS 3 Zrotation Xrotation Yrotation
        End Site
        {
          OFFSET 0.000000 0.050000 0.000000
        }
      }
    }
  }
  JOINT Spine
  {
    OFFSET -0.038690 -0.019111 -0.173812
    CHANNELS 3 Zrotation Xrotation Yrotation
    JOINT Thorax
    {
      OFFSET -0.130457 0.008731 -0.009912
      CHANNELS 3 Zrotation Xrotation Yrotation
      JOINT Nose
      {
        OFFSET -0.189120 -0.199106 -0.057156
        CHANNELS 3 Zrotation Xrotation Yrotation
        JOINT Head
        {
          OFFSET 0.427597 0.276167 0.196616
          CHANNELS 3 Zrotation Xrotation Yrotation
          End Site
          {
            OFFSET 0.000000 0.050000 0.000000
          }
        }
      }
      JOINT LShoulder
      {
        OFFSET -0.015876 -0.268168 -0.093073
        CHANNELS 3 Zrotation Xrotation Yrotation
        JOINT LElbow
        {
          OFFSET 0.161817 -0.729313 -0.064777
          CHANNELS 3 Zrotation Xrotation Yrotation
          JOINT LWrist
          {
            OFFSET 0.398089 0.211657 0.001611
            CHANNELS 3 Zrotation Xrotation Yrotation
            End Site
            {
              OFFSET 0.000000 0.050000 0.000000
            }
          }
        }
      }
      JOINT RShoulder
      {
        OFFSET 0.069406 0.171779 0.138442
        CHANNELS 3 Zrotation Xrotation Yrotation
        JOINT RElbow
        {
          OFFSET -0.125142 -0.052007 -0.000610
          CHANNELS 3 Zrotation Xrotation Yrotation
          JOINT RWrist
          {
            OFFSET -0.289304 -0.841579 -0.050810
            CHANNELS 3 Zrotation Xrotation Yrotation
            End Site
            {
              OFFSET 0.000000 0.050000 0.000000
            }
          }
        }
      }
    }
  }
}
MOTION
Frames: 10
Frame Time: 0.033333
0.000004 1.234769 0.000043 0.000000 0.000000 0.000000 71.165096 64.435054 -48.537478 21.996399 -18.068649 3.539869 127.632729 10.743845 -21.652936 -40.333142 -38.123928 -14.464840 109.985568 30.194180 -42.129666 -11.780383 87.656777 11.311316 12.841138 -93.211924 13.575227 85.863832 -4.346326 4.043631 130.049144 -13.376468 28.261905 -52.915691 21.519530 10.805040 3.381613 -159.769350 18.790164 -162.870067 -6.771365 -42.890075 -62.000736 0.204761 0.123035 -17.559646 36.998116 5.916212 112.565169 -0.258076 0.386713 159.880431 -3.463528 19.343592
0.000004 1.234779 0.000035 0.000000 0.000000 0.000000 88.870907 47.723821 -46.893881 33.852726 -33.475531 10.458380 27.288055 99.427590 -31.960009 -44.558243 -31.295583 -13.093244 142.279140 1.094437 -3.203069 13.827203 62.636144 -8.438829 11.336213 -85.820809 10.542760 63.869596 -17.994907 11.272623 143.878478 -3.873971 11.842162 -51.499052 19.501192 9.476265 8.572012 -151.717007 33.130815 -172.214327 -3.787893 -51.834778 -64.022121 -3.918895 -2.450431 -21.764635 43.723813 8.821599 153.996703 -5.285303 22.608413 153.956613 -3.473362 14.938239
0.000002 1.234773 0.000048 0.000000 0.000000 0.000000 32.711915 118.189346 -52.234418 36.316244 -21.365977 7.080799 38.573114 76.641028 -30.918937 -19.435099 -32.910143 -5.791111 89.267485 56.238336 -55.631510 14.129624 72.832455 -10.447540 44.514045 -52.918172 23.025240 52.416747 -34.092946 17.165779 172.362498 -0.026864 0.402462 -59.033472 12.172308 6.909107 86.293192 -55.206635 52.217375 -165.243194 11.459389 75.539661 -59.019154 -2.257542 -1.277866 -47.855377 52.027960 24.437413 159.712853 8.355275 -44.416708 154.433183 20.658814 -77.549927
0.000001 1.234767 0.000004 0.000000 0.000000 0.000000 2.233055 146.436755 -7.395471 50.139642 -8.176467 3.829964 19.543751 81.271671 -16.815036 -2.214850 -33.268019 -0.661782 25.122288 78.870694 -20.768722 13.630391 103.155242 -17.136095 61.756724 -38.089869 23.326801 59.628317 -36.566079 21.441224 -99.724523 -61.528405 -70.441524 -70.471986 17.180498 12.181342 82.156993 -45.309445 39.985684 -174.606161 -1.384878 -28.780466 -48.172651 -1.883772 -0.842173 -67.935662 45.525012 31.568583 -10.923094 163.464733 66.689535 -100.621706 -13.961780 -16.786163
0.000001 1.234761 0.000007 0.000000 0.000000 0.000000 42.523318 87.955933 -41.159597 69.779912 -3.882222 2.707796 0.266975 57.927211 -0.147765 -31.979638 -51.458657 -15.724434 -39.995679 4.822286 1.755862 15.845314 105.527080 -20.751894 56.930522 -42.396412 23.749704 70.694352 -34.590312 24.907637 -97.863856 -41.811638 -47.341824 -87.075597 16.307910 15.506215 94.300899 -51.616508 55.068919 -169.366554 -0.652819 -7.006245 -20.850161 -10.778242 -1.988724 -87.641016 40.552446 39.042264 -160.901499 -1.778699 -10.544232 -43.345109 -0.329036 -0.130757
0.000001 1.234755 0.000046 0.000000 0.000000 0.000000 63.667590 31.207903 -19.673285 108.898965 -21.739139 30.080166 6.584090 33.841380 -2.004999 -84.360271 -35.203731 -32.076549 -51.530922 13.676831 6.625603 18.071154 101.997199 -22.219041 40.362459 -58.425595 23.228323 55.464430 -51.636148 28.541376 -93.317032 -36.978102 -39.020924 -106.210827 14.818871 19.656465 -142.711013 1.106664 3.279164 -161.676219 -5.309381 -32.078347 -3.660447 -14.745468 -0.473796 -27.445245 21.892219 5.407890 -151.838633 -5.583842 -22.005071 -4.723102 -15.539631 -0.644808
0.000001 1.234750 0.000039 0.000000 0.000000 0.000000 73.070631 15.222900 -11.308844 123.703184 -28.386103 50.599870 -16.771334 29.006585 4.367519 -98.844601 -15.787896 -18.392517 -46.916651 14.281687 6.223669 19.337031 117.048273 -31.101403 28.768784 -74.416767 22.038325 39.156045 -74.452806 30.241881 -101.289979 -29.319414 -35.383233 -131.715543 21.679383 46.265316 -121.755142 26.970106 46.578352 -126.281903 -29.012048 -54.123958 7.560149 -17.441014 1.161281 2.559242 -14.003083 0.314357 -154.297540 -5.209595 -22.555454 -5.491726 -33.394573 -1.648462
0.000001 1.234746 -0.000015 0.000000 0.000000 0.000000 59.808221 23.898556 -13.879095 154.200861 -0.823156 3.593094 -43.153387 31.506565 12.730628 -98.812714 -27.508117 -31.883589 -49.245111 16.407837 7.560735 14.022250 128.776786 -28.777719 11.486976 -99.126108 13.462581 18.931436 -103.137365 23.732927 -82.568445 -57.470590 -51.413491 -160.694581 -7.603332 -42.679653 31.523748 106.031015 -41.089308 22.214157 -6.764452 1.329486 -90.980780 -6.934492 -7.053922 -7.121128 2.078426 0.129341 -158.525976 -0.344665 -1.817504 81.464609 -49.260731 43.088450
0.000001 1.234747 -0.000025 0.000000 0.000000 0.000000 61.599362 39.728219 -24.307988 114.719062 -33.692695 50.603970 -74.488758 33.247354 25.577325 -72.395729 -43.643776 -32.665002 -51.373485 18.078141 8.751082 15.785796 127.542497 -31.431849 2.397396 -95.629745 2.645255 30.245790 -88.336813 29.418356 -92.925954 -49.788140 -52.060239 -124.499035 -8.352625 -15.802637 7.620254 12.557535 -0.839649 15.059277 2.637607 -0.348696 -130.425065 4.811701 10.396965 -47.779296 22.037626 9.858716 -142.685116 13.307230 38.117942 102.807932 -21.976490 27.344841
0.000003 1.234742 -0.000048 0.000000 0.000000 0.000000 -3.092160 116.422942 4.987434 15.764652 41.980850 -6.081195 -90.856851 -26.268133 -26.649919 3.130518 -63.178998 1.925414 -20.845214 42.539650 8.191292 5.560637 130.998728 -12.165024 16.942743 -104.486115 21.771398 2.183539 135.628203 -5.351121 -3.833657 -139.939061 -10.490007 -85.601890 -15.443234 -14.313371 71.113023 -36.023642 26.167669 44.040154 -18.558179 7.560880 -126.803642 10.955887 21.684456 -87.649100 19.334574 18.570916 -146.347510 3.049162 10.059081 120.385810 -14.428867 24.920503
